<svg xmlns="http://www.w3.org/2000/svg" viewBox="0 0 560.42 281.8"><defs><style>.cls-1{fill:#0f0f0f;}</style></defs><g id="Layer_2" data-name="Layer 2"><g id="graphic"><path class="cls-1" d="M280.21,0a1.19,1.19,0,0,1,.54.13l235,113.42a1.78,1.78,0,0,1,.77,2.17,1.35,1.35,0,0,1-1.86.9L279.67,3.2A1.76,1.76,0,0,1,278.9,1,1.43,1.43,0,0,1,280.21,0Z"/><path class="cls-1" d="M280.21,0a1.37,1.37,0,0,1,1.14.66L427.2,227.44a1.86,1.86,0,0,1-.28,2.33,1.29,1.29,0,0,1-2-.33L279.07,2.66a1.86,1.86,0,0,1,.29-2.33A1.28,1.28,0,0,1,280.21,0Z"/><path class="cls-1" d="M280.21,0a1.43,1.43,0,0,1,1.31,1,1.76,1.76,0,0,1-.77,2.17L42.28,118.31a1.36,1.36,0,0,1-1.85-.91,1.77,1.77,0,0,1,.77-2.17L279.67.13A1.16,1.16,0,0,1,280.21,0Z"/><path class="cls-1" d="M280.21,0a1.28,1.28,0,0,1,.85.33,1.86,1.86,0,0,1,.29,2.33L136.55,227.78a1.29,1.29,0,0,1-2,.33,1.87,1.87,0,0,1-.28-2.33L279.07.66A1.37,1.37,0,0,1,280.21,0Z"/><path class="cls-1" d="M280.21,0a1.55,1.55,0,0,1,1.42,1.66V280.14a1.44,1.44,0,1,1-2.84,0V1.66A1.55,1.55,0,0,1,280.21,0Z"/><path class="cls-1" d="M1.42,0H559a1.55,1.55,0,0,1,1.42,1.66A1.55,1.55,0,0,1,559,3.35H1.42A1.55,1.55,0,0,1,0,1.69,1.55,1.55,0,0,1,1.42,0Z"/><path class="cls-1" d="M514.37,113.56c-19.72-9.93-26.22-39.79-20.26-62.19,7.14-26.82,27.55-41.83,49.75-48.45,1.33-.39.77-2.8-.57-2.4-17.95,5.35-34.88,15.63-45,34.44-9.55,17.73-11.31,39.8-3.56,58.86,3.89,9.57,10.18,17.66,18.58,21.89,1.24.63,2.33-1.52,1.07-2.15Z"/><path class="cls-1" d="M513.4,112.86c-11.79-2.08-23.51-1.28-35.28.55a76.74,76.74,0,0,0-31.23,12c-17.48,11.67-29.6,31.72-32,55.27a85.63,85.63,0,0,0,5.93,41.64c.61,1.44,2.45.17,1.84-1.26-11.55-27.34-6.29-61.7,12.58-82.66a71.74,71.74,0,0,1,34.56-20.86c13.83-3.68,29-4.78,43-2.31,1.34.24,1.92-2.17.57-2.4Z"/><path class="cls-1" d="M422.28,220.64c-38.18-30.31-90.9-23.48-122.95,15.09a119.22,119.22,0,0,0-20,35.25c-.53,1.46,1.3,2.73,1.84,1.26,17.34-47.38,60.77-75.81,104.42-66.56a86.21,86.21,0,0,1,35.66,17.11c1.13.91,2.2-1.25,1.07-2.15Z"/><path class="cls-1" d="M47.12,115.71c14.94-7.52,22.89-27,23.54-45.27.77-21.71-9.47-42.59-24.34-55C37.59,8.13,27.45,3.6,17.12.52c-1.33-.4-1.89,2-.56,2.4,22.2,6.63,42.61,21.63,49.75,48.45,6,22.4-.54,52.26-20.26,62.19-1.26.63-.17,2.78,1.07,2.15Z"/><path class="cls-1" d="M47.3,115.3c26.17-.85,57.24.64,77.48,22.7,19.18,20.92,24.62,55.54,13,83.09-.61,1.43,1.23,2.7,1.84,1.26,9.08-21.5,8.45-48.06-1.7-68.91-10.78-22.14-30.16-34.13-51.2-38a185.91,185.91,0,0,0-39.4-2.64c-1.36,0-1.37,2.54,0,2.49Z"/><path class="cls-1" d="M139.21,222.79c37.59-29.83,89.36-23,120.74,15.15a117.76,117.76,0,0,1,19.34,34.3c.54,1.47,2.37.2,1.84-1.26-8.38-22.88-23-42.37-41.5-54.77a85.36,85.36,0,0,0-64.76-13.05,87.35,87.35,0,0,0-36.73,17.48c-1.13.9-.07,3.06,1.07,2.15Z"/><path class="cls-1" d="M419.26,215.63C388.81,188.29,348.8,177.19,311,184.28a121,121,0,0,0-31.33,10.57c-1.26.62-.18,2.77,1.07,2.15,35-17.3,76-16.16,110.64,2a132.65,132.65,0,0,1,26.82,18.76c1.08,1,2.15-1.19,1.07-2.15Z"/><path class="cls-1" d="M417.06,212.06c-3.95-27.86-8.05-58,2.23-84.76,4.32-11.25,10.95-20.65,20.21-26.71,8.71-5.71,19.12-8.73,29.06-6.67,1.35.28,1.92-2.13.57-2.41-20.86-4.31-41.54,10.51-50.68,32.05-11.82,27.85-7.61,59.75-3.45,89.16.22,1.58,2.28.91,2.06-.66Z"/><path class="cls-1" d="M503,107.37c-13.94-11.68-23.11-30.63-24.07-50.72-1-20.36,5.79-40.11,19-53.49,1-1.05-.47-2.81-1.5-1.77-13.88,14.05-20.95,35.17-19.57,56.52,1.32,20.58,10.76,39.64,25.05,51.61,1.12.94,2.19-1.22,1.08-2.15Z"/><path class="cls-1" d="M469.39,91.64c-11-9.87-19.8-24.17-22.18-40.37A69.6,69.6,0,0,1,458.3,2.54c.85-1.24-.65-3-1.51-1.76A72.6,72.6,0,0,0,445,50.65c2.21,17.39,11.61,32.62,23.33,43.14,1.09,1,2.15-1.18,1.08-2.15Z"/><path class="cls-1" d="M143.06,219.63c30.65-31.43,75.75-37,111.17-13.33a102.52,102.52,0,0,1,25.52,24.63c.9,1.21,2.4-.56,1.51-1.77-27-36.7-71.8-49.93-110.4-32.19a98.23,98.23,0,0,0-29.31,20.9c-1,1.06.48,2.81,1.51,1.76Z"/><path class="cls-1" d="M281.57,209.45c-2.24-22.35-22.2-36-38.13-44.26a102.79,102.79,0,0,0-60.95-10.83c-1.34.19-1.36,2.68,0,2.5a100.76,100.76,0,0,1,56.81,9c16,7.55,37.89,21.2,40.14,43.61.16,1.57,2.29,1.59,2.13,0Z"/><path class="cls-1" d="M422.94.78C408.05,20.62,407.46,50.4,421,71.36a1.11,1.11,0,1,0,1.84-1.25c-13-20-12.71-48.51,1.6-67.57.9-1.2-.6-3-1.51-1.76Z"/><path class="cls-1" d="M421.65,69.53c-16.11,3.31-30.71,15.06-38.75,31.79-8.43,17.52-8.62,40.23-2.14,58.6a1.08,1.08,0,1,0,2.05-.66c-6.26-17.78-6.24-39.7,1.93-56.68,7.8-16.22,21.88-27.44,37.48-30.64,1.34-.28.77-2.68-.57-2.41Z"/><path class="cls-1" d="M381.23,156.29c-30.94-24.54-72.23-22.41-101.31,5-1.07,1,.45,2.76,1.51,1.76,28.36-26.69,68.63-28.45,98.72-4.58,1.14.91,2.21-1.25,1.08-2.15Z"/><path class="cls-1" d="M136,2.6c14.25,19,14.45,46.94,1.56,66.84a1.12,1.12,0,1,0,1.84,1.26C152.9,49.87,152.35,20.6,137.52.84c-.91-1.21-2.41.56-1.51,1.76Z"/><path class="cls-1" d="M138.2,71.94c15.26,3.13,29,13.91,37,29.57,8.54,16.89,9.66,38.52,3.3,56.61a1.09,1.09,0,1,0,2.06.66c6.56-18.67,5.29-41.12-3.51-58.53-8.18-16.17-22.46-27.48-38.23-30.72-1.34-.27-1.92,2.13-.57,2.41Z"/><path class="cls-1" d="M180.27,158.44c30.09-23.87,70.36-22.11,98.72,4.58,1.06,1,2.58-.75,1.51-1.76-29.08-27.38-70.37-29.51-101.31-5-1.13.9-.06,3.06,1.08,2.15Z"/><path class="cls-1" d="M384.6.75A51.08,51.08,0,0,0,383.44,52c.74,1.33,2.59.09,1.84-1.26A48.32,48.32,0,0,1,386.44,2,1.12,1.12,0,1,0,384.6.75Z"/><path class="cls-1" d="M384.43,50.07c-11.81-1.39-24,3.79-31.9,14.24-7.78,10.26-10.81,24.38-8.64,37.77.25,1.57,2.31.91,2.05-.66-4.42-27.26,15-51.62,38.49-48.86,1.36.16,1.35-2.33,0-2.49Z"/><path class="cls-1" d="M345.46,101.55a42.93,42.93,0,0,0-36.92-9.69c-11.94,2.51-22.11,10.93-29.16,22.31a1.11,1.11,0,1,0,1.84,1.25c6.74-10.86,16.5-18.77,27.89-21.16a41.14,41.14,0,0,1,35.28,9.44c1.1,1,2.17-1.21,1.07-2.15Z"/><path class="cls-1" d="M281.15,114.77c-16.09-22-43.08-28-65-14.55-1.22.75-.14,2.9,1.07,2.15,21.13-12.93,47-7,62.43,14.16.89,1.22,2.39-.55,1.5-1.76Z"/><path class="cls-1" d="M215.57,103.35c7.15-27.08-10.19-54.59-34.39-54.68-1.37,0-1.37,2.49,0,2.5,22.85.08,39.08,26,32.33,51.52a1.09,1.09,0,1,0,2.06.66Z"/><path class="cls-1" d="M179.46,51.32c7.82-2.7,13-11.16,13.95-20.45,1.21-11.4-3.8-22-10.31-30-.95-1.16-2.46.6-1.51,1.76,5.71,7,10.19,16,9.85,26-.3,9-5,17.73-12.55,20.34-1.31.45-.75,2.86.57,2.4Z"/><path class="cls-1" d="M341.26,1.09C335.21,11.25,336.4,25,343.5,34c.93,1.19,2.44-.58,1.51-1.76A27.1,27.1,0,0,1,343.1,2.35C343.89,1,342-.22,341.26,1.09Z"/><path class="cls-1" d="M217.32,2.35a27.1,27.1,0,0,1-1.91,29.87c-.93,1.18.57,3,1.51,1.76,7.1-9,8.29-22.73,2.24-32.89-.78-1.31-2.63-.06-1.84,1.26Z"/><path class="cls-1" d="M344.26,31.86c-14.8-1.93-27.37,13.72-25.57,30.73.17,1.57,2.3,1.59,2.14,0-1.67-15.77,9.67-30,23.43-28.24,1.36.18,1.35-2.32,0-2.49Z"/><path class="cls-1" d="M321.1,62.56c-12.23-11.63-29.18-11.74-41.52-.28-1.08,1,.44,2.75,1.5,1.77,11.36-10.55,27.27-10.43,38.51.28,1.06,1,2.58-.75,1.51-1.77Z"/><path class="cls-1" d="M215.41,34.35c13.53.1,25,11.26,25.28,27.52a1.07,1.07,0,1,0,2.13,0c-.36-17.59-12.7-29.9-27.41-30-1.37,0-1.38,2.48,0,2.49Z"/><path class="cls-1" d="M241.62,64.24c11.69-9,27.17-8.06,38.42,1.38,1.11.94,2.18-1.23,1.07-2.15-11.81-9.92-28.3-10.79-40.57-1.39-1.14.88-.08,3,1.08,2.16Z"/><path class="cls-1" d="M163.28,184.58c.39-24.17.47-50.81-12.93-70.83C136.7,93.36,113.79,91.29,93.3,91c-1.37,0-1.37,2.47,0,2.49,20.18.28,43,2.2,56,22.79,12.43,19.54,12.18,45.08,11.8,68.29a1.08,1.08,0,1,0,2.14,0Z"/><path class="cls-1" d="M112.17,83.39c12-27.16,7.61-61.57-12-82.17-1-1.07-2.53.69-1.51,1.76,18.93,19.84,23.28,52.93,11.71,79.15-.63,1.42,1.21,2.68,1.84,1.26Z"/><path class="cls-1" d="M141.45,69c20.09-13.44,29.33-42,21.3-67.57a1.09,1.09,0,1,0-2.06.66c7.72,24.51-1,51.84-20.32,64.76-1.19.79-.12,3,1.08,2.15Z"/><path class="cls-1" d="M58.64,2.8C73,13.29,80.51,32.41,80.41,51.87c-.11,21.44-9.58,41-22.42,55.7-1,1.12.52,2.89,1.5,1.76C73,93.93,82.78,73.19,82.54,50.68c-.21-20-8.18-39.3-22.82-50C58.55-.21,57.48,2,58.64,2.8Z"/><path class="cls-1" d="M369.28,138.25c-12.35-14.54-29-23.44-46.4-25.24-14.78-1.53-36.49,1.22-43.93,18.82-.61,1.44,1.23,2.7,1.84,1.26C288,116,309.69,113.9,324,115.62c16.48,2,32.14,10.64,43.82,24.39,1,1.14,2.47-.62,1.5-1.76Z"/><path class="cls-1" d="M427.54,71.71c-15.9,6.93-25.91,24-30.26,42.57-5.57,23.82-2.09,49.2,1.15,73.12.22,1.59,2.27.91,2.06-.66-3.08-22.7-6.39-46.73-1.67-69.45C402.67,98.7,412.24,81,428.11,74.12c1.27-.56.72-3-.57-2.41Z"/><path class="cls-1" d="M390.75,54c-12.51-1.07-24.56,6.61-31.57,18.59-7.85,13.41-8.69,30.85-4.92,46.12.38,1.54,2.43.89,2.05-.66-3.52-14.3-2.89-30.39,4.12-43.17,6.51-11.86,18.21-19.42,30.32-18.39,1.37.12,1.37-2.37,0-2.49Z"/><path class="cls-1" d="M345.88,1.39C342.44,26,362.22,41.08,378,51.42c1.2.78,2.28-1.37,1.08-2.15-14.81-9.68-34.44-23.88-31.19-47.22.22-1.57-1.83-2.24-2.05-.66Z"/><path class="cls-1" d="M314.15,1.27a19.84,19.84,0,0,0-3.46,17.11l.74-1.53C305,19.16,300.68,25.49,300,33.28l1.61-1.08c-7.12-5-16.4-3.51-22.08,3.58-.94,1.17.57,2.94,1.51,1.77,5-6.3,13.16-7.64,19.49-3.2.75.53,1.53-.17,1.6-1.07.55-6.64,4.4-12.06,9.83-14a1.3,1.3,0,0,0,.74-1.53A17,17,0,0,1,315.66,3c.89-1.2-.61-3-1.51-1.76Z"/><path class="cls-1" d="M244.76,3a17,17,0,0,1,2.92,14.69,1.3,1.3,0,0,0,.74,1.53c5.43,2,9.28,7.39,9.83,14,.07.9.85,1.6,1.6,1.07,6.33-4.44,14.45-3.1,19.49,3.2.94,1.17,2.44-.6,1.51-1.77-5.68-7.09-15-8.58-22.08-3.58l1.61,1.08c-.64-7.79-5-14.12-11.39-16.43l.74,1.53a19.83,19.83,0,0,0-3.46-17.11c-.9-1.21-2.41.56-1.51,1.76Z"/><path class="cls-1" d="M281.15,114c-2-28.19-27.12-47-49.89-38.31-1.3.5-.74,2.91.57,2.41C253.2,70,277.12,87.38,279,114c.11,1.58,2.24,1.6,2.13,0Z"/><path class="cls-1" d="M452.23,83c-17.4-22.09-19.29-55.28-4.71-80,.78-1.33-1.07-2.57-1.84-1.26-15.13,25.62-13,60.13,5,83,.93,1.19,2.44-.58,1.51-1.76Z"/><path class="cls-1" d="M183.21,149.75c9.77-18.41,20.68-39.93,15.68-62.49-3.75-16.89-16.71-29.57-31.34-31.84-1.35-.21-1.34,2.28,0,2.49,14.5,2.26,27.06,15.71,29.78,32.61,3.42,21.15-6.84,40.79-16,58-.73,1.37,1.11,2.62,1.84,1.26Z"/><path class="cls-1" d="M65.06,107c13.88-11.68,23.23-29.57,26-49.31s-.69-42.27-13.45-56.5c-1-1.11-2.5.65-1.5,1.76,12.43,13.88,15.67,36.14,12.71,55.3C86,76.88,77.14,93.82,64,104.88c-1.1.93,0,3.09,1.08,2.15Z"/></g></g></svg>