<svg xmlns="http://www.w3.org/2000/svg" viewBox="0 0 230.96 138.04"><defs><style>.cls-1{fill:#0f0f0f;}</style></defs><g id="Layer_2" data-name="Layer 2"><g id="graphic"><path class="cls-1" d="M106.83.54a1,1,0,0,1,.7,1.77L36,70.78a1,1,0,1,1-1.42-1.48L106.12.83A1,1,0,0,1,106.83.54Z"/><path class="cls-1" d="M106.83.54a.77.77,0,0,1,.25,0,1,1,0,0,1,.74,1.24L79.94,110.39a1,1,0,1,1-2-.51L105.83,1.31A1,1,0,0,1,106.83.54Z"/><path class="cls-1" d="M106.83.54a1,1,0,0,1,1,.79l32.41,135.45a1,1,0,0,1-.76,1.24,1,1,0,0,1-1.23-.76L105.83,1.8a1,1,0,0,1,.76-1.23A1,1,0,0,1,106.83.54Z"/><path class="cls-1" d="M106.83.54a1,1,0,0,1,.74.33L197.1,96.39a1,1,0,0,1-1.49,1.4L106.08,2.27a1,1,0,0,1,0-1.45A1,1,0,0,1,106.83.54Z"/><path class="cls-1" d="M106.83.54a1,1,0,0,1,.25,2L14.84,26.17a1,1,0,1,1-.51-2L106.57.57A1.15,1.15,0,0,1,106.83.54Z"/><path class="cls-1" d="M106.83.54a1,1,0,0,1,.4.09L210,45a1,1,0,1,1-.81,1.87L106.42,2.51a1,1,0,0,1-.53-1.35A1,1,0,0,1,106.83.54Z"/><path class="cls-1" d="M1,0H229.94a1,1,0,0,1,0,2.05H1A1,1,0,0,1,1,0Z"/><path class="cls-1" d="M145.56,17.55c-.38-.09-1-1.8-1.13-2.16a12.94,12.94,0,0,1-1.23-4.77c-.13-3.08,1.15-6,2.42-8.71.42-.89-.91-1.67-1.32-.78-1.61,3.43-3.09,7-2.5,10.9.25,1.65,1.41,6.51,3.35,7a.77.77,0,0,0,.41-1.48Z"/><path class="cls-1" d="M139.07,35.3c-1.61-5.95-.63-14.14,5.21-17.51a.76.76,0,0,0-.77-1.32c-6.46,3.72-7.71,12.62-5.92,19.24a.77.77,0,0,0,1.48-.41Z"/><path class="cls-1" d="M155.47,52c-2.77-8.27.71-19.63,6.16-26.1.63-.75-.45-1.84-1.09-1.08a31,31,0,0,0-6.26,12.69c-1.17,4.7-1.86,10.21-.29,14.9.31.93,1.79.53,1.48-.41Z"/><path class="cls-1" d="M117.51,42.88c1.86-3.35,3.65-6.44,7.25-8.12,3.82-1.8,8.13-3.06,12.09-.95.87.47,1.65-.86.78-1.32-4.06-2.17-8.29-1.34-12.37.38-4.53,1.9-6.74,5-9.07,9.23-.48.87.84,1.64,1.32.78Z"/><path class="cls-1" d="M125.12,73.65c0-7.17,6.23-13.54,11.82-17.34a25.54,25.54,0,0,1,17.16-4.52c1,.1,1-1.43,0-1.54a27.2,27.2,0,0,0-19.2,5.65c-5.53,4.14-11.28,10.46-11.31,17.75a.77.77,0,0,0,1.53,0Z"/><path class="cls-1" d="M132.23,104.65C132.94,95,141.6,87,148.88,81.56A51.77,51.77,0,0,1,172.44,71.4c1-.15.56-1.62-.41-1.48a53.79,53.79,0,0,0-25.42,11.46c-7.22,5.75-15.2,13.54-15.91,23.27-.07,1,1.46,1,1.53,0Z"/><path class="cls-1" d="M138.52,130.79c1.77-11.59,8.75-21.27,18-28.23,4.85-3.64,11.13-5.13,16.86-6.82,6.07-1.79,12.24-3,18.59-2.55,1,.07,1-1.47,0-1.54-6.65-.47-13.11.86-19.45,2.74-5.79,1.73-12,3.25-16.93,7-9.49,7.18-16.74,17.12-18.56,29-.14,1,1.34,1.39,1.48.41Z"/><path class="cls-1" d="M96,46.21c1.12-3.58,3.09-6.59,6.72-7.91s10.34-.53,13,2.47c.66.74,1.74-.35,1.09-1.09-1.71-1.92-4.48-2.54-6.9-3.08a13.52,13.52,0,0,0-7.59.22c-4.17,1.48-6.52,4.88-7.8,9-.29,1,1.19,1.35,1.48.41Z"/><path class="cls-1" d="M89.27,73.11c7.11-13.5,25.07-8.55,34.8-1.1.78.6,1.55-.74.78-1.33-10.44-8-29.4-12.59-36.9,1.66-.46.87.86,1.65,1.32.77Z"/><path class="cls-1" d="M82.11,101.11c4.93-9.48,14.23-14,24.75-11.76,9.44,2,17.3,7.59,24.06,14.22.71.7,1.8-.39,1.09-1.08-7.42-7.28-16.31-13.49-26.83-15S85.62,91,80.78,100.33c-.46.88.87,1.65,1.33.78Z"/><path class="cls-1" d="M80.21,108.77c1.87-7.53,9.9-7.39,16.27-6.78a40.87,40.87,0,0,1,16,5.2c9.77,5.45,17.73,13.69,24.81,22.23.63.76,1.71-.33,1.08-1.09-8.09-9.76-17.52-19.37-29.3-24.55a41.83,41.83,0,0,0-18-3.5c-5.86.13-10.83,1.9-12.37,8.09a.77.77,0,0,0,1.48.4Z"/><path class="cls-1" d="M90.17,70.24c.5-9,.29-19.12-4.65-27a14,14,0,0,0-7.69-6.37c-3-.88-7.25-1.42-9.65,1a.77.77,0,0,0,1.08,1.09c2.51-2.5,8.3-1,10.89.68C83.1,41.48,85,44.9,86.24,48.1c2.73,7,2.8,14.75,2.4,22.14-.06,1,1.48,1,1.53,0Z"/><path class="cls-1" d="M56.34,50.93a12.36,12.36,0,0,1,13.07.9C74,55,76.53,60.94,78.46,66c4,10.53,3.41,22.26,2.94,33.31,0,1,1.5,1,1.54,0,.54-12.85.87-25.91-4.77-37.8-2.31-4.88-5-9.77-10.06-12.22a13.83,13.83,0,0,0-12.54.32c-.89.45-.11,1.77.77,1.33Z"/><path class="cls-1" d="M84.58,23.92a5.9,5.9,0,0,1,5.48-1.52c2.43.63,3.58,2.88,4.36,5.06a47.3,47.3,0,0,1,2.44,12.8c.06,1,1.6,1,1.53,0a55.45,55.45,0,0,0-1.45-9.68C96.3,28,95.54,25,93.77,23c-2.74-3.17-7.33-2.82-10.27-.16-.74.66.35,1.74,1.08,1.08Z"/><path class="cls-1" d="M77.55,10.14c6.67-3.22,9.41,6.3,9.11,11.07-.07,1,1.47,1,1.53,0,.4-6.14-3.61-16.15-11.42-12.4-.89.43-.11,1.75.78,1.33Z"/><path class="cls-1" d="M61.74,13.9c6.07-1.18,7.55,4.25,8.11,9.07.52,4.49.82,9.09-.52,13.47-.29,1,1.19,1.35,1.48.41,1.72-5.61,1.28-12.37-.1-18-1.15-4.7-4.47-7.35-9.38-6.4-1,.19-.56,1.67.41,1.48Z"/><path class="cls-1" d="M56.5,50.81c5.65-6.33,4.76-15.35.63-22.21-2.12-3.51-4.84-6.69-8.7-8.29a24.61,24.61,0,0,0-13.94-1.2c-1,.22-.56,1.7.4,1.48a23.81,23.81,0,0,1,12.26.87C51,22.75,53.74,26,55.8,29.37c3.76,6.23,4.8,14.55-.39,20.35-.66.74.43,1.82,1.09,1.09Z"/><path class="cls-1" d="M64.08,13.65c3.11-1.76,3.65-6.3,2-9.25-.93-1.65-2.42-2.24-4.16-2.76A25.77,25.77,0,0,0,54,.38a.77.77,0,0,0,0,1.54A20.36,20.36,0,0,1,62.89,3.6c3.08,1.54,3.63,6.9.41,8.72a.77.77,0,0,0,.78,1.33Z"/><path class="cls-1" d="M38.44,19.55c2.33-.21,4.66-.8,6-2.87,1.56-2.35,1.67-5.77,1.33-8.47C45.51,5.82,44.74,3,42.66,1.52,39.59-.63,34.55.34,31.05.34a.77.77,0,0,0,0,1.53c2.62,0,5.52-.35,8.11,0,3,.43,4.29,2.39,4.91,5.19A14.77,14.77,0,0,1,44,14c-.79,2.81-2.8,3.8-5.53,4-1,.09-1,1.63,0,1.54Z"/><path class="cls-1" d="M79.93,9.51c1.84-.72,3.11-1.61,3.2-3.73A5.88,5.88,0,0,0,79.68.47C78.79.06,78,1.38,78.9,1.8a4.5,4.5,0,0,1,2.67,3.42c.15,1.66-.62,2.25-2,2.81-.9.36-.51,1.85.41,1.48Z"/><path class="cls-1" d="M15.31,25.76c3.07-1.23,7.22-3.07,9.16-5.92C26.21,17.27,26,13,25.6,10.05c-.38-2.71-1.39-5.33-3.78-6.88C18.62,1.1,14.27.51,10.55.54a.77.77,0,0,0,0,1.53,22.86,22.86,0,0,1,8.8,1.58c3.16,1.3,4.47,3.92,4.81,7.19.25,2.46.38,5.65-.89,7.83-1.59,2.71-5.55,4.48-8.36,5.61-.91.37-.52,1.85.4,1.48Z"/><path class="cls-1" d="M18,25.1c4.75-1.14,11.91.23,15.77,3.36,3.42,2.77,5.45,7.09,6.61,11.24a37.1,37.1,0,0,1-3.7,28.24.77.77,0,0,0,1.32.78,38.35,38.35,0,0,0,3.1-31.78c-1.46-4-3.81-8.07-7.45-10.47a22.66,22.66,0,0,0-16.06-2.85c-1,.23-.55,1.71.41,1.48Z"/><path class="cls-1" d="M80.22,108.27c2.79-20.6-9.7-47.6-31.93-51.38-1-.17-1.38,1.31-.41,1.48C69.22,62,81.43,88,78.74,107.86c-.13,1,1.35,1.38,1.48.41Z"/><path class="cls-1" d="M212.7.4a39.79,39.79,0,0,0-9.91,43.94c.35.91,1.84.51,1.48-.41a38.3,38.3,0,0,1,9.51-42.44c.72-.68-.36-1.77-1.08-1.09Z"/><path class="cls-1" d="M181.87,33.41a41.43,41.43,0,0,1,7-32.08c.57-.81-.76-1.58-1.33-.77a42.94,42.94,0,0,0-7.14,33.26c.19,1,1.67.55,1.48-.41Z"/><path class="cls-1" d="M162.54,25.1C159.23,17,160.63,7.76,167,1.57c.71-.69-.37-1.78-1.08-1.09a22.71,22.71,0,0,0-4.88,25c.36.9,1.85.51,1.48-.41Z"/><path class="cls-1" d="M180,32.81c-10.2,10-9.57,25-8.57,38.18.08,1,1.61,1,1.54,0-1-12.73-1.78-27.38,8.11-37.1.71-.69-.38-1.77-1.08-1.08Z"/><path class="cls-1" d="M205.07,43.54c-4.56-.4-7.36,3.34-9.54,6.82a50.45,50.45,0,0,0-5.86,13.29,49,49,0,0,0,.8,28.59c.32.93,1.8.53,1.48-.4a47.24,47.24,0,0,1-1.4-25.33,48,48,0,0,1,4.2-11.68c2-4,5.09-10.21,10.32-9.75,1,.08,1-1.45,0-1.54Z"/><path class="cls-1" d="M190,89.5A62.31,62.31,0,0,1,193.57,39c.47-.87-.85-1.65-1.32-.78a63.85,63.85,0,0,0-3.71,51.72c.33.92,1.81.52,1.48-.41Z"/><path class="cls-1" d="M165,.7a17,17,0,0,0-11.71,21.54c.29.94,1.77.54,1.48-.4A15.4,15.4,0,0,1,165.41,2.18.77.77,0,0,0,165,.7Z"/><path class="cls-1" d="M171.22,70c-16.44-7.4-37.08-1.17-45.08,15.38-.43.89.9,1.67,1.33.78,7.61-15.75,27.25-21.91,43-14.83.89.4,1.67-.92.77-1.33Z"/><path class="cls-1" d="M59.93,46.72a25.7,25.7,0,0,0-5-32.21c-.73-.65-1.82.43-1.08,1.09a24.16,24.16,0,0,1,4.74,30.34.77.77,0,0,0,1.32.78Z"/><path class="cls-1" d="M48.06,17.38c1.88-2.68,2-5.81,1.94-9,0-3-.31-5.78-2.49-8a.77.77,0,0,0-1.09,1.08c2.09,2.12,2.06,5,2.06,7.8s-.2,5.11-1.75,7.32c-.57.81.76,1.58,1.33.77Z"/></g></g></svg>