<svg xmlns="http://www.w3.org/2000/svg" viewBox="0 0 326.7 872.56"><g id="Layer_2" data-name="Layer 2"><g id="Witch_2" data-name="Witch 2"><g id="Witch"><g id="Besom"><path d="M259.6,490c3.8-25.51,28.55-125.75,30.75-151.3s24.47-156.25,28.42-188.16S330.58,56.36,324.44,45s-15.06,7.5-18.93,36.21-1.95,37.89-2.85,76.27S279.15,338.4,279.15,338.4,271.71,383,269.92,391s-23.7,101.14-24.26,125.13c-.21,9-.42,27.72-.45,48.12-.07-.55-.16-1.26-.17-1.75,0-.9-.39-4.2-.39-4.2s-.32,3-.32,4.09a30.42,30.42,0,0,1-.37,3.36s-.15-1.29-.18-2.19a6.48,6.48,0,0,0-.88-2.31,18.75,18.75,0,0,0,0,2.16c.09.56-.61,1.52-.61,1.52s-.23-1.84-.27-2.75a15.82,15.82,0,0,0-.91-3.21s-.05,3.6-.05,4.68a4.8,4.8,0,0,1-.72,2.22s-.07-1.81-.12-2.54a21.46,21.46,0,0,0-.51-2.43,17.62,17.62,0,0,0,0,3.07,31.74,31.74,0,0,1-.72,5.47s-.12-2.54-.15-3.45-.3-2.57-.45-3.86-.24-2.92-.24-2.92a23.41,23.41,0,0,0-.58,4.59c-.08,2.69-.07,7-.07,7a8.08,8.08,0,0,1-.59-3,30.54,30.54,0,0,0-.51-5.66c-.07-.36-.11-.61-.14-.78a23.85,23.85,0,0,1-.38,5c-.08-.55,0-1.25-.09-2.71a12,12,0,0,0-.62-2.81c-.78,4.74.79,12.74.79,12.74s-.33-.23-1.18-3.79a49.17,49.17,0,0,1-1-8.1c-.49,15.93-.53,15.91,0,19.46.54,3.33,1,16.92,3.12,30.24,1.88,11.78,5,12.18,5.21,17.61,0,0-2.28,4-.52,6.4s1.58,3.51,1.58,3.51-.52,1.53-2.88,7.63c-1.07,2.78-2.27,5.52-3.52,8.24l-1.12,2.05-3.55,6.76c-2.36,4.5-4.63,9-6.91,13.6-4.52,9.11-8.71,18.38-12.93,27.65-1,2.31-2.12,4.65-3,7.06s-1.7,4.84-2.43,7.29a129.59,129.59,0,0,0-3.47,14.92q-.63,3.78-1,7.59c-.23,2.55-.38,5.07-.66,7.6-.53,5-1.09,10.11-1.76,15.15l.21,0c.82-5,1.51-10.06,2.18-15.1.36-2.52.58-5.08.88-7.58s.72-5,1.21-7.5a129.69,129.69,0,0,1,3.74-14.7c.77-2.41,1.61-4.8,2.55-7.14s2-4.6,3.11-6.9l.51-1c-1.49,3.67-2.95,7.35-4.35,11.07a123.17,123.17,0,0,0-4.75,18A136.4,136.4,0,0,0,203,752.13q-.24,4.65-.06,9.31c.13,3.1.42,6.18.72,9.26s.7,6.15,1.2,9.21a50.32,50.32,0,0,0,2.17,9l.2-.09a49,49,0,0,1-1.94-9c-.43-3.05-.73-6.12-1-9.2s-.45-6.16-.5-9.23.06-6.15.27-9.22a135.29,135.29,0,0,1,2.56-18.26,120,120,0,0,1,5-17.69c.29-.74.59-1.48.89-2.22q-1.45,4.46-2.75,9A128.34,128.34,0,0,0,206,739.82c-1.4,11.39-2,22.93-.84,34.37a74.41,74.41,0,0,0,1.42,8.51,68.08,68.08,0,0,0,2.56,8.22,162.74,162.74,0,0,0,6.9,15.72l.19-.1a162.3,162.3,0,0,1-6.49-15.83,67.63,67.63,0,0,1-2.33-8.2,74.17,74.17,0,0,1-1.19-8.42c-1-11.34-.11-22.78,1.5-34,.14-.85.3-1.69.47-2.53-1.86,13.27-2.34,28.33-1.62,35.32,1.25,12.09,7.41,30.4,17.34,42.31,4.41,5.28,15.19,12.77,15.19,12.77s-7.86-9.67-12.48-16.11a21.8,21.8,0,0,1-3.63-14v0a12.38,12.38,0,0,0,1.39,4.14l.22.63a84.94,84.94,0,0,0,3.72,8.47,73.28,73.28,0,0,0,10.44,15.3,64.44,64.44,0,0,0,6.63,6.49c2.32,2,4.69,4,7.12,5.84s4.94,3.65,7.53,5.31a55.87,55.87,0,0,0,8.06,4.44l.08-.19a58,58,0,0,1-7.79-4.77c-2.49-1.77-4.89-3.65-7.22-5.61s-4.63-4-6.86-6a61.46,61.46,0,0,1-6.26-6.56c-.54-.66-1.06-1.33-1.57-2a105.29,105.29,0,0,0,13.77,13.27c8.16,6.21,22,13.9,22,13.9s-4.94-17.57-6-25.85,5.4-26.13,9.32-40.08c3.54-12.6,11.16-47.25,12.08-72.44a140.89,140.89,0,0,1-.15,16.82,196.17,196.17,0,0,1-3.15,22.82c-.58,3.83-1.42,7.53-2.37,11.27s-1.95,7.45-3,11.17c-.5,1.87-1,3.73-1.47,5.61s-1,3.71-1.5,5.56c-1.08,3.7-2.24,7.37-3.4,11s-2.34,7.36-3.38,11.07c-.53,1.85-1,3.71-1.5,5.59a26.36,26.36,0,0,0-.93,5.73h.21a26.74,26.74,0,0,1,1-5.65c.49-1.86,1-3.71,1.6-5.55,1.11-3.7,2.34-7.33,3.58-11s2.45-7.31,3.61-11c.57-1.84,1.13-3.71,1.61-5.57s1-3.71,1.57-5.56c1.06-3.71,2.12-7.41,3.12-11.15s1.91-7.53,2.54-11.33a195.93,195.93,0,0,0,3.49-22.94,139,139,0,0,0,.09-23.26c-.17-1.94-.35-3.87-.64-5.82,0-.12-.05-.24-.07-.37.46,1.51.88,3,1.23,4.56a64.2,64.2,0,0,1,1.15,7.26c.27,2.44.45,4.9.54,7.36a97.17,97.17,0,0,1-.58,14.77c-.27,2.45-.63,4.9-1.07,7.33s-1,4.87-1.34,7.32a124.39,124.39,0,0,1-4,14.29l.2.07a124.77,124.77,0,0,0,4.44-14.23c.45-2.45,1.05-4.84,1.55-7.29s.95-4.89,1.29-7.36a99.36,99.36,0,0,0,.91-14.93q-.06-3.75-.39-7.49a66.13,66.13,0,0,0-1-7.46,100.48,100.48,0,0,0-4.25-14.4q-1.31-3.51-2.77-6.95c-1-2.29-2-4.55-3.09-6.8q-3-6.2-6.36-12.19c-2.75-5.21-5.7-10.31-8.78-15.31-1.7-2.84-2.84-4.67-3-5.07-.76-1.93-3.1-4.12-3-4.82s1.55-1.72,1.55-1.72a15.81,15.81,0,0,1,0-1.79,29.27,29.27,0,0,1-1.45-3.5c-.09-.56,2.3-6.29,3-13.74s-.05-30.27.09-33.31.66-9.44.89-10.84a47.83,47.83,0,0,0,.63-4.94,18.07,18.07,0,0,0-.3-3.65s-.6,4.76-1,1.81a10.62,10.62,0,0,1-.14-2.85,14.18,14.18,0,0,0-.7,4.69,9.4,9.4,0,0,1-.57,2.34s.19-2.22.27-2.75.21-2.31.38-3.36a6.59,6.59,0,0,0-.62-2.8,13.68,13.68,0,0,0-.14,2,17.32,17.32,0,0,1-.76,3.48l.15-2s-.12-1.45-.12-2.54a4.78,4.78,0,0,0-.56-2.07s-.08,3.77-.26,4.82a5.51,5.51,0,0,1-.87,2,14.2,14.2,0,0,0-.09-1.64c-.09-.55.29-.87.23-1.94a10.13,10.13,0,0,0-.53-2.79s-.09,1.61,0,2.34a10.28,10.28,0,0,1-1,2.89l-.07-1.81s.12-1.78.12-2.86a8.51,8.51,0,0,0-.5-2.43l-.29,1.75s-.2,3.4-.35,4.27a22.7,22.7,0,0,1-.81,2.75s0-2.16-.09-2.72a8.46,8.46,0,0,0-.53-2.81c0-.31,0-.62,0-.94,0-.6.06-1,.06-1l-.07,0C257.42,534,257.57,503.55,259.6,490Z"/><path d="M265.47,563.76c.08-.25.14-.4.14-.4S265.53,563.43,265.47,563.76Z"/><path d="M236.3,561.38c0-.13,0-.25,0-.33S236.2,560.83,236.3,561.38Z"/><path d="M264,635.16c-.15-.63-.22-.63-.25-.38C264,635.16,264.08,635.36,264,635.16Z"/></g><g id="Witch-2" data-name="Witch"><path d="M320.27,497.1c-3.44-5.35-10.31-13.75-14.51-16.8s-25.59-16.43-32.47-20.63-26-14.51-34-18.71-10.31-6.5-10.31-6.5a38.67,38.67,0,0,1-7.64-6.87c-3.06-3.82-1.91-7.26-5.35-7.64s-4.2,1.14-7.64-1.91-3.05-5.73-4.2-7.64-2.29-.38-3.44-2.29-2.29-9.17-1.91-12.22-1.14-8.79-1.53-11.08a92.57,92.57,0,0,0-1.91-10.31c-1.52-5.35-3-3.95-4.58-6.11-2.29-3.06-6.11-9.93-6.87-21.77a71.13,71.13,0,0,1,2-20.92l.16.4c6.13,17.39,18.48,30.67,29.82,38.36,4.4,3,5.55,7.06,11.06,5.38,1.56-.47,4.67-3.86,9.05-7.07,15-11,31-26.62,36.34-32,10-10,22.11-22.63,26-31.67,3.08-7.18,5.74-8.9,7.21-12.19a47.16,47.16,0,0,0,5.12-19.81c2-3-.3-7.2-.33-9.67,0-1.84.29-4.33,0-5.66-.54-2.45-2.69-3.43-3-5-.67-3.34-2.38-4.22-3.34-5.67-3.44-5.21-13,18.33-13,18.33a15.26,15.26,0,0,0,.34-6.33c-5,2.33-6.34,8-8,11.67-3.69,8.09-9.36,10.87-3.34,27,2.31,6.18-8.53,14.48-19.66,20.33C247,319.1,223.19,333,223.19,333s-7.08-17.73-15.65-38.27l.06-.09c3.93-6.41,4.58-14.9,2.67-17.19s-6.49-6.11-9.55-8.78c-1-.91-3.46-2.54-6.26-4.54-6-13.55-11.39-25-14.37-29.33a12.26,12.26,0,0,0-6-4.73,25.09,25.09,0,0,0-9.06-3.61s-10.84-4.31-12.57-6.7a12.72,12.72,0,0,1,.74-1.32c2.42-3.75,5.63-3.15,7.59-2.66s6,3.54,8.05,5.3,5.69,2.36,7.26,1.87a5.8,5.8,0,0,0,3.24-3.44c.29-1.08,1-2.55,2-2.94a2.63,2.63,0,0,1,2.16.1c.59.19,1-.2,1.67-.89s.49-1.27.4-2.06-1.48-2.06-1.48-2.06,1.48.88,2.16,1.18a2.44,2.44,0,0,0,2.46-.79c.88-.78.49-1.66.58-2.25a2.54,2.54,0,0,1,1.18-1.67,3.68,3.68,0,0,1,2.36-.3,5.18,5.18,0,0,0,3.24-.49c1.47-.59,1.08-2.75.88-4s-.29-4.71-.39-6a15.18,15.18,0,0,1,.59-4.91c.49-1.66,2.75-3.33,4.31-4.71s3.64-6.18,4.91-9.71c1.15-3.2,1.35-10.85,1.37-12.3l1.19-.28a9.72,9.72,0,0,0,4.72-1.27c13.55-4.24,63.45-16.75,63.45-16.75s-21-16-37-17c-13.27-.83-22.8-1.77-37.08,1.35-.26-2.76-.45-5.77-.45-8.79,0-10.5,0-25.49-6-30s-9-12.75-10.49-18-4.5-18-11.25-21.75-27.75-12-31.5-15.75-21.59-12.3-28.5-15.75C105.75,17.25,84,0,84,0s6,13.5,8.25,22.5S97.5,45,106.5,54s15,18,15,24-6.75,17.25-.75,19.5,9.75,4.49,9,8.24-2.25,1.5-3.75,5.25c-.87,2.17-3.24,9.6-5.08,15.48-15.74-3.3-29.89-6.58-37.9-8-22-4-44,6-55,16s24,7,41,16c7.84,4.15,19.51,7.88,32.85,11-.2.3-.41.6-.61.91-1.41,2.16-2.91,4.26-4.47,6.31-3,3.92-6.17,7.69-9.48,11.35q-1.41,1.36-2.88,2.67a103.58,103.58,0,0,1-12.56,9.64c-2.22,1.42-4.46,2.81-6.78,4.06-1.16.63-2.33,1.22-3.51,1.81s-2.4,1.25-3.57,1.91a70.76,70.76,0,0,0-18.54,15.5,30.86,30.86,0,0,0-4.41,6.84,67.08,67.08,0,0,0-4.77,15.37c-1.07,5.24-1.87,10.5-2.92,15.72-.53,2.6-1.11,5.2-1.84,7.75A24.44,24.44,0,0,1,24.17,265a11.07,11.07,0,0,1-1,1.71c-.38.49-.88,1.09-1.49,1l0,.19a1.21,1.21,0,0,0,1-.28,4.19,4.19,0,0,0,.72-.74,11.73,11.73,0,0,0,1.05-1.73,25,25,0,0,0,1.47-3.74c.79-2.55,1.45-5.14,2-7.75,1.19-5.2,2.13-10.45,3.32-15.63a65.67,65.67,0,0,1,4.95-15,29.58,29.58,0,0,1,4.35-6.47,65.42,65.42,0,0,1,5.56-5.61,68.4,68.4,0,0,1,8.91-6.72c-.74.56-1.47,1.15-2.17,1.78-1,.88-1.83,1.77-2.69,2.7a50.46,50.46,0,0,0-6.3,5.84,51.74,51.74,0,0,0-9.83,16.15,92.32,92.32,0,0,0-4.37,18.39c-.93,6.21-1.51,12.46-2.23,18.66-.19,1.55-.39,3.1-.68,4.61a14,14,0,0,1-.56,2.17A4.5,4.5,0,0,1,25,276.14c-2.21,2-5.15,3.26-7.93,4.69s-5.68,3-7.65,5.64a10.5,10.5,0,0,0-1.9,4.45,23.16,23.16,0,0,0-.13,4.77c.34,6.29,1.47,12.47,1.92,18.69A19.87,19.87,0,0,1,9.18,319a16.41,16.41,0,0,1-1.63,4.34A21.76,21.76,0,0,1,5,327.21l-.4.44A30.71,30.71,0,0,0,.63,330l.12.16a23.72,23.72,0,0,1,3-1.82A15.25,15.25,0,0,1,1.5,330l-.16.06v0c-.44.24-.89.47-1.35.67,0,0,.71-.24,1.8-.71l.29-.12c3.79-1.68,11.41-5.9,11.41-12.67,0-9-2.25-21,5.25-22.5s21,0,21.75-12,6.75-34.49,11.25-41.24c3.37-5.06,9-5.56,12.31-6.76a26,26,0,0,1-1.86,3.82,9,9,0,0,1-.85,1.16l-1,1.24c-.65.84-1.27,1.71-1.88,2.58A57.69,57.69,0,0,0,55.15,249a29.82,29.82,0,0,0-2.43,6,15.44,15.44,0,0,0-.41,6.48c.15,1.07.37,2.11.6,3.14a23.22,23.22,0,0,0,1,3.06,16.7,16.7,0,0,1,.89,3,6.07,6.07,0,0,1-.17,3.05l.18.07a6.37,6.37,0,0,0,.39-3.18,18,18,0,0,0-.72-3.11,22.25,22.25,0,0,1-.76-3c-.16-1-.31-2.07-.39-3.1-.49-4.12,1.19-8,3.25-11.59a48.91,48.91,0,0,1,3.53-5.11c.62-.83,1.27-1.64,1.92-2.46L63,241c.15-.19.34-.44.51-.69s.31-.49.45-.74a25.8,25.8,0,0,0,2.16-6.07,2.14,2.14,0,0,0,.28-.39C66,237.77,64.5,240,60,246s-6.75,10.49-6,16.49,4.76,10.94,3,14.25c-3,5.65-3.47,12.65-3.38,17.33C47,305.94,32.2,323.86,31.28,334c-1,10.77,3.92,30.37,16.65,43.1,9.42,9.41,25.78,37.54,33.68,51.59C78.93,435.81,77.77,443.55,77,452c-1.14,12.22.77,30.94-1.53,38.58S69.33,517,66.66,520.4c0,0-1.91,0,3.82,3.82s16,3.82,18.33,4.59a14.8,14.8,0,0,0,4.2.76s9.17,26.74,12.23,35.52,14.51,38.58,15.66,45.83,1.52,23.3,0,30.56-3.44,27.12-3.44,37.43,3.05,27.88,9.93,47.74,19.48,45.07,21.39,51.57,3.82,9.93,3.43,15.28-1.14,7.64-3.43,11.45-9.05,12.23-8.79,17.19c.38,7.26,4.2,9.93,5.73,18.34,1.06,5.83,2.55,9.7,2.8,14.95.24,5,.26,17.13.26,17.13h3.43S151.07,855,151.83,850s4.2-10.31,4.2-10.31a28.34,28.34,0,0,1,4.21,6.88c2.67,6.11,1.91,8.4,4.2,13.36,3.82,3.44,13.75,6.88,19.86,6.5s14.89-4.2,19.48-8,7.64-8.41,5-9.55S190,842.77,190,842.77s-3.44-9.93-4.2-17.19-2.3-21-5.35-31.7-13.37-38.2-14.52-47.37-8-47.35-7.63-55.38-.39-18.33-.39-25.21c0-2.38.05-5.54.19-8.91,3.79-2.65,8.62-5.94,10.13-3.69s1.91,5,0,9.17-6.88,19.1-8.41,24.44-1.52,9.93,1.15,14.51,13.75,21.4,16.42,24.83,8.41,9.93,9.93,6.11-1.52-18-1.91-24.82,5-15.66,8-19.87S206.07,672.8,208,669s2.29-7.26,4.2-9.17,9.17-11.07,15.66-19.09,35.9-46.22,41.25-52.71,21.77-28.65,27.12-36.29a139.75,139.75,0,0,1,14.13-16.8c2.29-2.3,9.55-14.9,11.46-21S323.71,502.45,320.27,497.1ZM73.38,195.32a9.45,9.45,0,0,1-2,1.13ZM9.55,319.09a20.86,20.86,0,0,0,.17-4.73c-.36-6.27-1.4-12.47-1.63-18.7a22.53,22.53,0,0,1,.18-4.59,9.49,9.49,0,0,1,1.8-4.09c1.84-2.41,4.63-3.92,7.4-5.28s5.76-2.57,8.23-4.76a10.64,10.64,0,0,0,.87-.9l.19-.22c.07-.1.15-.21.21-.31a3.72,3.72,0,0,0,.29-.61,14.31,14.31,0,0,0,.64-2.36c.31-1.56.54-3.12.75-4.67.82-6.23,1.49-12.44,2.51-18.59.49-3.08,1.07-6.14,1.76-9.17a70.08,70.08,0,0,1,2.55-8.93,51.69,51.69,0,0,1,9.21-16c.5-.6,1-1.2,1.56-1.77a67.87,67.87,0,0,0-5.36,8.16A60.84,60.84,0,0,0,35,236.19c-1.28,5.07-2.2,10.21-3,15.35S30.57,261.86,29.93,267a44.16,44.16,0,0,1-1.44,7.55,11.88,11.88,0,0,1-3.93,6.19,11.65,11.65,0,0,1-3.31,1.7A21.85,21.85,0,0,0,17.61,284a27.68,27.68,0,0,0-3.27,2.23,12.88,12.88,0,0,0-2.8,2.86,14.93,14.93,0,0,0-2.47,7.5,36,36,0,0,0,.2,7.34c0,7.13,1.29,11.47.48,14.78A18.07,18.07,0,0,1,8,323.11,16.46,16.46,0,0,0,9.55,319.09ZM37,239.43c-3.64,17.7-3.66,38-11.33,43.67-3.7,2.73-11.84,1.58-14.92,9.07a11.43,11.43,0,0,1,1.4-2.6,12.2,12.2,0,0,1,2.67-2.65,28.42,28.42,0,0,1,3.21-2.09,21.29,21.29,0,0,1,3.54-1.43,12.56,12.56,0,0,0,3.6-1.81,13,13,0,0,0,4.36-6.7,45.4,45.4,0,0,0,1.54-7.73c.69-5.15,1.37-10.29,2.21-15.41s1.82-10.2,3.12-15.2a59.07,59.07,0,0,1,5.87-14.17l.27-.44A80.63,80.63,0,0,0,37,239.43ZM68.25,252c3.75-6.74,8.25-9.74,9-12,.62-1.87,1.24-1.66,1.86,2.29a117.67,117.67,0,0,0-7.66,13.34s-3.49,7.93-7.58,16.93C64.19,266.94,65.27,257.34,68.25,252Zm47.3,113.73c-1.8,6.3-15.13,30-23.74,44.54-13.06-23.05-20.61-53-29.18-68.42,3.47-4.17,19.7-25.51,29.93-42.15,3.26,12.68,11.25,26.58,14.59,35.1C110.58,343.56,117.84,357.69,115.55,365.71ZM259.54,528c-4.2,4.58-14.13,22.15-18,32.08s-17.19,36.67-21.77,43.16-11.08,15.66-15.66,19.48-8.79,7.26-8.79,7.26a20.07,20.07,0,0,0-13.75-3c-8,1.14-13,6.49-16.42,11.07-1.85,2.46-4,6.69-6.53,10.78a48.9,48.9,0,0,1,1.57-9.25c1.91-6.11,3.43-10.7,3.82-19.48s-1.53-24.83-1.91-34.38-2.68-34.37-3.44-43.92-5.46-38.54-5.46-38.54,8.89-3.65,15-9a9.73,9.73,0,0,0,1.08-1.12c2.34.87,4.48,1.6,6.18,2.06,8.41,2.3,48.89,13,58.82,14.52s23.68,3.44,27.89,5a17.73,17.73,0,0,1,6.11,3.44S263.74,523.46,259.54,528Z"/><path d="M295,249.77l3.34-10s-2.67-3-4-4.34-2.34-2.66-3.34,1.34,1.34,9,1.34,9Z"/></g></g></g></g></svg>