<svg xmlns="http://www.w3.org/2000/svg" viewBox="0 0 480.67 238.23"><defs><style>.cls-1{fill:#0f0f0f;}</style></defs><g id="Layer_2" data-name="Layer 2"><g id="graphic"><path class="cls-1" d="M1.12,66.07a1.12,1.12,0,0,1-.29-2.2L238.46.2A1.12,1.12,0,0,1,239,2.36L1.41,66A1,1,0,0,1,1.12,66.07Z"/><path class="cls-1" d="M65.82,175.33a1.12,1.12,0,0,1-.8-1.91L238,.49a1.12,1.12,0,0,1,1.58,1.58L66.61,175A1.12,1.12,0,0,1,65.82,175.33Z"/><path class="cls-1" d="M175.56,238.23a.92.92,0,0,1-.29,0,1.11,1.11,0,0,1-.79-1.37L237.67,1A1.11,1.11,0,0,1,239,.2a1.12,1.12,0,0,1,.79,1.37L176.64,237.4A1.13,1.13,0,0,1,175.56,238.23Z"/><path class="cls-1" d="M301.7,237.35a1.12,1.12,0,0,1-1.08-.83l-63-234.95A1.12,1.12,0,1,1,239.83,1l62.95,235a1.12,1.12,0,0,1-.79,1.37A1.45,1.45,0,0,1,301.7,237.35Z"/><path class="cls-1" d="M378,141.66a1.12,1.12,0,0,1-.79-.33L238,2A1.12,1.12,0,0,1,239.54.45l139.29,139.3a1.11,1.11,0,0,1,0,1.58A1.09,1.09,0,0,1,378,141.66Z"/><path class="cls-1" d="M474,65.46a.92.92,0,0,1-.29,0l-235.23-63A1.12,1.12,0,1,1,239,.23l235.23,63a1.12,1.12,0,0,1-.29,2.2Z"/><path class="cls-1" d="M10.88,63.2,9,62c.17-.26,17.22-26.75,18.27-60.73l2.23.07C28.45,35.94,11.06,62.93,10.88,63.2Z"/><path class="cls-1" d="M72.37,168.83l-2.23-.12a130.7,130.7,0,0,0-6.07-41.44,110,110,0,0,0-17.82-34.7,97.94,97.94,0,0,0-36.77-29l.94-2A100.14,100.14,0,0,1,48.05,91.23a112.32,112.32,0,0,1,18.18,35.44A133,133,0,0,1,72.37,168.83Z"/><path class="cls-1" d="M176.44,230.58a130.59,130.59,0,0,0-26-32.85,109.87,109.87,0,0,0-32.79-21.14,97.78,97.78,0,0,0-46.32-6.7l-.21-2.23a100.06,100.06,0,0,1,47.42,6.87A112.28,112.28,0,0,1,152,196.13a133.1,133.1,0,0,1,26.4,33.44Z"/><path class="cls-1" d="M299.44,231a130.35,130.35,0,0,0-38.92-15.47,109.9,109.9,0,0,0-39-1.92A97.81,97.81,0,0,0,178.09,231l-1.3-1.83a100,100,0,0,1,44.51-17.75,112.17,112.17,0,0,1,39.78,2,133.17,133.17,0,0,1,39.59,15.76Z"/><path class="cls-1" d="M294.05,203.59l-2.23-.24c1.69-15.84,6.95-29.41,15.64-40.31a74.28,74.28,0,0,1,27.14-20.91,101,101,0,0,1,37.11-9l0,2.24a98.78,98.78,0,0,0-36.26,8.85,72,72,0,0,0-26.3,20.28C300.78,175,295.69,188.19,294.05,203.59Z"/><path class="cls-1" d="M370.61,134.32c-2.74-29.87,10.81-51.5,22.66-64.4a105.78,105.78,0,0,1,26.62-21l1,2a103.94,103.94,0,0,0-26,20.59c-11.52,12.55-24.69,33.6-22,62.62Z"/><path class="cls-1" d="M45.2,54l-1.87-1.22c.15-.23,14.61-22.71,15.5-51.54l2.24.07C60.16,30.79,45.35,53.77,45.2,54Z"/><path class="cls-1" d="M97.5,143.71l-2.24-.12a110.84,110.84,0,0,0-5.15-35.18c-5.47-17.42-18-40.93-46.31-54l.94-2c29.13,13.44,41.93,37.57,47.53,55.44A113.36,113.36,0,0,1,97.5,143.71Z"/><path class="cls-1" d="M185.64,196.26a111.24,111.24,0,0,0-22-27.89c-13.45-12.34-36-26.46-67.11-23.61l-.2-2.23c31.94-2.93,55.09,11.57,68.88,24.25a113.61,113.61,0,0,1,22.48,28.47Z"/><path class="cls-1" d="M290.25,196.7a110.78,110.78,0,0,0-33-13.13c-17.82-4-44.42-4.92-69.93,13.1L186,194.84c26.2-18.51,53.5-17.53,71.78-13.44a113.15,113.15,0,0,1,33.7,13.42Z"/><path class="cls-1" d="M281.14,156.11l-2-.93c10.7-23.21,29.92-33.4,44.16-37.87a88.5,88.5,0,0,1,28.58-4.16l-.12,2.24a87.78,87.78,0,0,0-27.87,4.08C310.08,123.81,291.48,133.68,281.14,156.11Z"/><path class="cls-1" d="M350.66,114.37c-2.33-25.44,9.21-43.88,19.31-54.86a88.86,88.86,0,0,1,22.67-17.9l1,2a87.8,87.8,0,0,0-22.09,17.47c-9.77,10.64-20.93,28.49-18.68,53.09Z"/><path class="cls-1" d="M74.38,46.18,72.5,45c.13-.19,12.4-19.26,13.15-43.72l2.24.07C87.11,26.41,74.5,46,74.38,46.18Z"/><path class="cls-1" d="M118.85,122.35l-2.23-.12a94.43,94.43,0,0,0-4.38-29.85C107.6,77.61,97,57.68,73,46.59l.94-2c24.82,11.45,35.72,32,40.49,47.23A94.6,94.6,0,0,1,118.85,122.35Z"/><path class="cls-1" d="M193.45,167.09a94,94,0,0,0-18.71-23.66c-11.4-10.47-30.53-22.44-56.9-20l-.21-2.23c27.22-2.5,46.94,9.85,58.68,20.65a94.23,94.23,0,0,1,19.14,24.25Z"/><path class="cls-1" d="M282.43,167.52a94.59,94.59,0,0,0-28-11.14c-15.11-3.36-37.66-4.16-59.29,11.12l-1.29-1.83c22.32-15.77,45.57-14.93,61.14-11.45a94.56,94.56,0,0,1,28.7,11.43Z"/><path class="cls-1" d="M274.93,133l-2-.94c9.12-19.78,25.5-28.46,37.63-32.27a75.41,75.41,0,0,1,24.35-3.54l-.12,2.24a74.49,74.49,0,0,0-23.63,3.46C299.45,105.58,283.7,114,274.93,133Z"/><path class="cls-1" d="M333.71,97.42c-2-21.69,7.85-37.4,16.45-46.77a75.32,75.32,0,0,1,19.32-15.24l1,2a74.31,74.31,0,0,0-18.74,14.82c-8.27,9-17.73,24.14-15.82,45Z"/><path class="cls-1" d="M99.17,39.54,97.3,38.32c.1-.17,10.51-16.34,11.15-37.08l2.23.07A80.66,80.66,0,0,1,99.17,39.54Z"/><path class="cls-1" d="M137,104.2l-2.23-.12a80,80,0,0,0-3.72-25.33c-3.93-12.51-12.91-29.41-33.28-38.81l.93-2c21.16,9.76,30.45,27.27,34.51,40.25A80.27,80.27,0,0,1,137,104.2Z"/><path class="cls-1" d="M200.1,142.3a79.67,79.67,0,0,0-15.88-20.08c-9.67-8.87-25.88-19-48.23-17l-.21-2.23c23.2-2.12,40,8.4,50,17.6a80.57,80.57,0,0,1,16.31,20.66Z"/><path class="cls-1" d="M275.79,142.73A79.72,79.72,0,0,0,252,133.28c-12.81-2.85-31.93-3.53-50.26,9.42l-1.29-1.83c19-13.44,38.84-12.72,52.11-9.76A80.66,80.66,0,0,1,277,140.85Z"/><path class="cls-1" d="M269.66,113.27l-2-.94c7.78-16.87,21.75-24.28,32.09-27.52a64.35,64.35,0,0,1,20.76-3L320.35,84a63.48,63.48,0,0,0-20,3C285.93,91.5,275.61,100.34,269.66,113.27Z"/><path class="cls-1" d="M340.3,104.08c-2.13-23.15,8.38-39.92,17.56-49.92a80.62,80.62,0,0,1,20.63-16.27l1,2a79.69,79.69,0,0,0-20,15.85c-8.85,9.65-19,25.83-16.93,48.14Z"/><path class="cls-1" d="M120.25,33.89l-1.88-1.22a67.8,67.8,0,0,0,9.45-31.43l2.24.07A68.7,68.7,0,0,1,120.25,33.89Z"/><path class="cls-1" d="M152.43,88.77l-2.23-.12A67.81,67.81,0,0,0,147,67.17c-4.85-15.42-14.34-26.48-28.2-32.87l.94-2c18,8.32,26,23.25,29.42,34.31A68.32,68.32,0,0,1,152.43,88.77Z"/><path class="cls-1" d="M205.75,121.22a68.12,68.12,0,0,0-13.47-17c-11.92-10.92-25.67-15.76-40.86-14.36l-.21-2.23c19.78-1.82,34.1,7.15,42.64,15a68.48,68.48,0,0,1,13.89,17.61Z"/><path class="cls-1" d="M270.14,121.65a67.84,67.84,0,0,0-20.18-8c-15.78-3.51-30.11-.82-42.57,8l-1.29-1.83c16.22-11.46,33.11-10.86,44.42-8.33a68.37,68.37,0,0,1,20.84,8.31Z"/><path class="cls-1" d="M265.17,96.53l-2-.93c6.64-14.4,18.55-20.72,27.38-23.49a54.79,54.79,0,0,1,17.7-2.57l-.12,2.23C307.79,71.76,277.22,70.41,265.17,96.53Z"/><path class="cls-1" d="M324.9,88.68c-1.81-19.74,7.14-34,15-42.56a68.9,68.9,0,0,1,17.58-13.87l1,2a67.86,67.86,0,0,0-17,13.45c-10.91,11.89-15.73,25.61-14.34,40.78Z"/><path class="cls-1" d="M142.27,28l-1.88-1.22a55,55,0,0,0,7.68-25.53l2.24.07A56.32,56.32,0,0,1,142.27,28Z"/><path class="cls-1" d="M168.55,72.65l-2.23-.12c0-.32,1.4-31.75-25.46-44.13l.94-2c14.78,6.82,21.27,19,24.11,28.11A56.33,56.33,0,0,1,168.55,72.65Z"/><path class="cls-1" d="M211.65,99.2C211.5,98.92,197,71,167.54,73.71l-.21-2.23c16.21-1.49,27.94,5.86,34.94,12.29a56.07,56.07,0,0,1,11.37,14.42Z"/><path class="cls-1" d="M264.24,99.63c-.27-.17-26.8-17.09-51,0L212,97.78c13.29-9.39,27.13-8.9,36.4-6.83a56,56,0,0,1,17.06,6.81Z"/><path class="cls-1" d="M262.84,87.81l-2-.93C266.85,73.77,277.69,68,285.73,65.5a49.57,49.57,0,0,1,16.11-2.34l-.12,2.23C301.44,65.38,273.74,64.16,262.84,87.81Z"/><path class="cls-1" d="M294.25,58c-2.27-24.75,21.1-36.87,21.33-37l1,2c-.22.12-22.24,11.58-20.11,34.8Z"/><path class="cls-1" d="M165.37,21.8l-1.88-1.22A41.66,41.66,0,0,0,169.3,1.24l2.24.07A43.32,43.32,0,0,1,165.37,21.8Z"/><path class="cls-1" d="M185.46,55.74l-2.23-.12c0-.24,1.05-24-19.27-33.41l.94-2C186.61,30.19,185.48,55.49,185.46,55.74Z"/><path class="cls-1" d="M217.84,76.1c-.11-.21-11.11-21.35-33.39-19.3l-.21-2.23c23.81-2.19,35.48,20.29,35.59,20.52Z"/><path class="cls-1" d="M258.05,76.53c-.2-.13-20.3-12.93-38.57,0l-1.29-1.83c19.53-13.8,40.87-.16,41.08,0Z"/><path class="cls-1" d="M259.68,76.06l-2-.93c10-21.72,35.32-20.58,35.57-20.57l-.12,2.24C292.85,56.78,269.05,55.75,259.68,76.06Z"/><path class="cls-1" d="M285.72,49.43c-1.94-21.13,18-31.48,18.21-31.59l1,2c-.19.1-18.79,9.79-17,29.39Z"/><path class="cls-1" d="M185.28,16.47l-1.87-1.23A30.52,30.52,0,0,0,187.58,2l2.23.14A32.12,32.12,0,0,1,185.28,16.47Zm-.94-.61-.93-.62h0Z"/><path class="cls-1" d="M200,41.17,197.8,41h0c0-.23.73-17.41-13.93-24.17l.94-2C200.89,22.25,200.05,41,200,41.17Z"/><path class="cls-1" d="M223.17,56.19c-.08-.16-8-15.45-24.15-14l-.2-2.23c17.63-1.62,26.26,15,26.35,15.19Z"/><path class="cls-1" d="M252.71,56.62c-.14-.1-14.69-9.35-27.89,0l-1.3-1.83c14.47-10.22,30.26-.13,30.42,0l-1.23,1.88.62-.94Z"/><path class="cls-1" d="M254.34,56.15l-2-.94C259.72,39.13,278.45,40,278.64,40l-.13,2.23C278.34,42.22,261.11,41.47,254.34,56.15Z"/><path class="cls-1" d="M277.46,41.21c-1.62-17.64,15-26.27,15.19-26.35l1,2c-.16.08-15.45,8-14,24.15Z"/><path class="cls-1" d="M207.68,10.47l-1.87-1.23.94.61-.94-.61a17.55,17.55,0,0,0,2.38-7.56l2.23.14A19.49,19.49,0,0,1,207.68,10.47Z"/><path class="cls-1" d="M466.18,63.11c-.18-.26-17.53-27.2-18.6-61.77l2.24-.06c1.05,33.94,18.06,60.35,18.23,60.61Z"/><path class="cls-1" d="M431.92,53.94c-.15-.23-14.92-23.17-15.83-52.6l2.24-.06c.89,28.8,15.32,51.21,15.47,51.43Z"/><path class="cls-1" d="M402.8,46.13c-.12-.19-12.71-19.73-13.48-44.79l2.24-.07c.75,24.41,13,43.45,13.12,43.64Z"/><path class="cls-1" d="M378.06,39.5A80.35,80.35,0,0,1,366.57,1.34l2.23-.06c.64,20.72,11,36.84,11.13,37Z"/><path class="cls-1" d="M357,33.87a68.68,68.68,0,0,1-9.79-32.53l2.23-.06a67.69,67.69,0,0,0,9.43,31.36Z"/><path class="cls-1" d="M315.15,22.58a45,45,0,0,1-6.42-21.31L311,1.21A43.26,43.26,0,0,0,317,21.35Z"/><path class="cls-1" d="M303.5,19.46A38.44,38.44,0,0,1,298,1.27l2.24-.06a36.73,36.73,0,0,0,5.11,17Z"/><path class="cls-1" d="M292.21,16.47a32.18,32.18,0,0,1-4.52-14.32L289.92,2a30.32,30.32,0,0,0,4.17,13.23Z"/><path class="cls-1" d="M269.81,10.47a19.49,19.49,0,0,1-2.74-8.65l2.24-.14a17.21,17.21,0,0,0,2.38,7.56Z"/><path class="cls-1" d="M216.44,24.77l-2.24-.13,1.12.06-1.12-.05c0-.41.42-9.93-7.92-13.78l.93-2C217,13.33,216.46,24.3,216.44,24.77Z"/><path class="cls-1" d="M229.17,33.79c-.18-.36-4.59-8.81-13.75-8l-.2-2.23c10.67-1,15.74,8.77,15.95,9.18l-2,1,1-.51Z"/><path class="cls-1" d="M246.71,34.22c-.34-.22-8.39-5.33-15.89,0l-1.29-1.82c8.76-6.19,18-.28,18.41,0l-1.23,1.88.61-.94Z"/><path class="cls-1" d="M248.34,33.75l-2-.94c4.49-9.74,15.46-9.25,15.93-9.22l-.12,2.23C261.72,25.8,252.19,25.41,248.34,33.75Z"/><path class="cls-1" d="M261.06,24.81c-1-10.68,8.77-15.75,9.18-16l1,2-.51-1,.51,1c-.36.18-8.81,4.61-8,13.75Z"/><path class="cls-1" d="M287.62,179.77c-1.67-9.5,4.43-17.69,10.33-24.45a92.09,92.09,0,0,1,18.21-16.09,82.32,82.32,0,0,1,45.43-14.13,1,1,0,0,0,0-2A84.52,84.52,0,0,0,313,139a95.69,95.69,0,0,0-18.91,17.82c-5.46,6.75-10,14.52-8.4,23.5.23,1.28,2.17.74,1.95-.53Z"/><path class="cls-1" d="M417.48,47.8A74,74,0,0,1,401.8,1a1,1,0,0,0-2,0,76.23,76.23,0,0,0,16.27,48.25c.8,1,2.22-.41,1.43-1.42Z"/><path class="cls-1" d="M191,182.34a99.12,99.12,0,0,0-82.08-52.21c-1.29-.07-1.29,1.94,0,2a97.09,97.09,0,0,1,80.34,51.22c.61,1.14,2.35.13,1.74-1Z"/><path class="cls-1" d="M126.62,115.49c29.61-5.15,61,12.89,69.31,42.22a1,1,0,0,0,1.94-.53c-8.62-30.46-41.09-49-71.78-43.63-1.28.22-.74,2.16.53,1.94Z"/><path class="cls-1" d="M309.87,71.49a45.52,45.52,0,0,1,29.3-42.38c1.21-.45.69-2.4-.53-1.94a47.6,47.6,0,0,0-30.79,44.32,1,1,0,0,0,2,0Z"/><path class="cls-1" d="M338.73,27.41A47.49,47.49,0,0,1,330.83,2a1,1,0,0,0-2,0A49.32,49.32,0,0,0,337,28.42c.71,1.08,2.46.07,1.74-1Z"/><path class="cls-1" d="M372.59,133.71c-16.54-31.44,4.5-64.68,23.86-89,.8-1-.62-2.44-1.43-1.43C384.41,56.61,374.12,70.68,368.59,87c-5.29,15.57-5.51,33,2.26,47.75.61,1.15,2.35.13,1.74-1Z"/><path class="cls-1" d="M161.71,79.56c3.15-20.25-7.89-42.75-26.83-51.19-1.17-.52-2.2,1.22-1,1.74,18.06,8,28.92,29.49,25.89,48.91-.19,1.27,1.75,1.82,2,.54Z"/><path class="cls-1" d="M85.05,156c1.43-31.21-11.12-62-33.15-84a114.6,114.6,0,0,0-21-16.52c-1.11-.68-2.12,1.06-1,1.74A112.79,112.79,0,0,1,81.06,130a106.47,106.47,0,0,1,2,26c-.06,1.3,1.95,1.3,2,0Z"/><path class="cls-1" d="M60.62,50c18.8,16.3,31.75,40.46,31.65,65.67a1,1,0,0,0,2,0C94.39,90,81.23,65.22,62,48.59c-1-.85-2.41.57-1.42,1.42Z"/><path class="cls-1" d="M199.65,150.26a93.69,93.69,0,0,1,76.93-3.85c1.21.47,1.73-1.47.54-1.95-25.59-10.14-54-8.28-78.49,4.06-1.16.58-.14,2.32,1,1.74Z"/><path class="cls-1" d="M87.4,42.39A69,69,0,0,0,96.88,1.63c-.11-1.28-2.12-1.29-2,0a67.08,67.08,0,0,1-9.2,39.74,1,1,0,0,0,1.74,1Z"/><path class="cls-1" d="M29.56,58.07A76,76,0,0,0,42.7,1c-.22-1.28-2.16-.74-1.94.53A74,74,0,0,1,27.82,57.05c-.76,1.06,1,2.06,1.74,1Z"/><path class="cls-1" d="M184.66,205.08c-19.88-24-47.63-40.35-78.71-44.22a125.18,125.18,0,0,0-27.5-.29c-1.28.12-1.29,2.14,0,2,31-3,61.86,5.75,86.14,25.36a132.92,132.92,0,0,1,18.65,18.55c.82,1,2.24-.43,1.42-1.42Z"/><path class="cls-1" d="M434.21,1.32a131.68,131.68,0,0,0,19.63,58.21c.68,1.1,2.43.09,1.74-1A129.35,129.35,0,0,1,436.23,1.32c-.12-1.28-2.13-1.29-2,0Z"/><path class="cls-1" d="M469.16,62a91,91,0,0,0-49.48,12.21,101.21,101.21,0,0,0-36.2,35.48,94.86,94.86,0,0,0-10.62,26.33c-.3,1.26,1.64,1.8,1.95.54,7.78-32.41,33.49-59.73,65.58-69.15a89.59,89.59,0,0,1,28.77-3.39c1.29,0,1.29-2,0-2Z"/><path class="cls-1" d="M476.22,156.77c-1.33-.28-2.93.38-4.2.69l-1,.27a11,11,0,0,0-1.94-4.43,13.67,13.67,0,0,1,4.14-4.34c2.16,1.31,4,4.08,5.28,6.06.79,1.23,2.76.09,2-1.15a27.57,27.57,0,0,0-4.13-5.13c-.86-.83-2.09-2.37-3.44-2.19s-3.13,2.32-4,3.27c-.16.17-.3.36-.44.54a13.17,13.17,0,0,0,1.25-4c.06-1.05-.32-1.23-1-1.87-1.53-1.48-1.75-4.26-3.61-5.43a.74.74,0,0,0-.94.06.81.81,0,0,0-.86.59c-.64,2.11-4.15,2.39-4.44,4.66-.08.66.36,1.16.64,1.72a14,14,0,0,1,1.09,2.94,5.09,5.09,0,0,0-.25,1.52.43.43,0,0,0,0,.05c-.21-.26-.41-.52-.62-.76-.85-.95-2.61-3.1-4-3.27s-2.58,1.36-3.44,2.19a28.4,28.4,0,0,0-4.13,5.13c-.79,1.24,1.18,2.38,2,1.15,1.26-2,3.12-4.75,5.29-6.06a13.67,13.67,0,0,1,4.14,4.34,10.85,10.85,0,0,0-1.95,4.43l-1-.27c-1.31-.32-2.83-1-4.19-.69-2.14.45-3.22,3.69-4.17,5.34a1.14,1.14,0,0,0,2,1.15,23.28,23.28,0,0,1,1.66-2.87c.94-1.19,1.41-1.39,2.87-1,.89.21,1.76.43,2.64.66a5.88,5.88,0,0,0,1.47,4.19l-.6.11c-1.25.23-2.64.28-3.56,1.29-1.85,2-2.24,6-2.56,8.62-.17,1.45,2.11,1.44,2.28,0,.24-2,.67-6.59,2.82-7.41a14.05,14.05,0,0,1,2.94-.72,4.83,4.83,0,0,0,8.18,0,14.8,14.8,0,0,1,2.95.72c2.17.82,2.57,5.41,2.81,7.41.18,1.44,2.46,1.46,2.28,0-.31-2.57-.69-6.62-2.56-8.62-.92-1-2.29-1.06-3.56-1.29l-.6-.11a5.88,5.88,0,0,0,1.47-4.19q1.32-.35,2.64-.66c1.47-.36,1.94-.16,2.87,1a24.7,24.7,0,0,1,1.67,2.87,1.14,1.14,0,0,0,2-1.15C479.42,160.44,478.36,157.22,476.22,156.77Zm-14.91-12.32c.52-1.58,2.48-2.08,3.38-3.6,1,1.07,1.46,3.26,2.29,4.37.53.72.92.61.81,1.65a5.71,5.71,0,0,1-.21,1,3.84,3.84,0,0,0-3.22-1.91,3.66,3.66,0,0,0-2.56,1.1A4,4,0,0,1,461.31,144.45Z"/><path class="cls-1" d="M464.36,141c-.26,0-.47-.15-.47-.33V61.91c0-.18.21-.33.47-.33s.48.15.48.33V140.7C464.84,140.88,464.62,141,464.36,141Z"/><path class="cls-1" d="M465,102.71c-.26-15.4-6.95-29.38-20.11-37.77-.73-.47-1.41.7-.68,1.16,12.76,8.13,19.19,21.7,19.45,36.61a.67.67,0,0,0,1.34,0Z"/><path class="cls-1" d="M465,102.71c-.43-6.64-4.52-13.36-10.71-16.1-7.69-3.41-16.84-2.28-24.8-.53A78,78,0,0,0,386.63,112a79.71,79.71,0,0,0-13.76,24c-.3.82,1,1.17,1.29.36a77.13,77.13,0,0,1,38.25-42.88,71.62,71.62,0,0,1,29.15-7.66c5-.13,10.65.48,14.81,3.51a18.37,18.37,0,0,1,7.32,13.38c.06.86,1.4.86,1.34,0Z"/><path class="cls-1" d="M464.75,140.16a1.12,1.12,0,0,1-1.12-1.12V61.91a1.12,1.12,0,0,1,2.24,0V139A1.12,1.12,0,0,1,464.75,140.16Z"/><path class="cls-1" d="M457.92,2.4H19.17a1.12,1.12,0,0,1,0-2.24H457.92a1.12,1.12,0,1,1,0,2.24Z"/></g></g></svg>