<svg xmlns="http://www.w3.org/2000/svg" viewBox="0 0 432.71 245.67"><defs><style>.cls-1{fill:#0f0f0f;}</style></defs><g id="Layer_2" data-name="Layer 2"><g id="graphic"><path class="cls-1" d="M1.12,0H431.59c.62,0,1.12.68,1.12,1.52S432.21,3,431.59,3H1.12C.5,3,0,2.36,0,1.52S.5,0,1.12,0Z"/><path class="cls-1" d="M203,1.14a.69.69,0,0,1,.2,0L427.37,56.09a1.55,1.55,0,0,1,.9,1.77c-.11.82-.69,1.38-1.3,1.22L202.81,4.16a1.54,1.54,0,0,1-.9-1.76A1.28,1.28,0,0,1,203,1.14Z"/><path class="cls-1" d="M203,1.14a.87.87,0,0,1,.5.16l185.19,124a1.79,1.79,0,0,1,.51,2c-.27.75-.94,1.06-1.5.69L202.51,4A1.82,1.82,0,0,1,202,2,1.17,1.17,0,0,1,203,1.14Z"/><path class="cls-1" d="M203,1.14a1.09,1.09,0,0,1,.93.67L324.39,243.3a1.89,1.89,0,0,1-.3,2.11,1,1,0,0,1-1.56-.4L202.08,3.52a1.88,1.88,0,0,1,.3-2.11A.93.93,0,0,1,203,1.14Z"/><path class="cls-1" d="M203,1.14c.58,0,1.07.61,1.12,1.41L215.83,206a1.45,1.45,0,0,1-1,1.64c-.62.06-1.16-.57-1.21-1.4L201.89,2.78a1.45,1.45,0,0,1,1-1.63Z"/><path class="cls-1" d="M203,1.14a1,1,0,0,1,.52.17A1.83,1.83,0,0,1,204,3.36l-64.8,170.23c-.28.74-1,1-1.51.65a1.8,1.8,0,0,1-.48-2.05L202,2A1.14,1.14,0,0,1,203,1.14Z"/><path class="cls-1" d="M203,1.14a1.07,1.07,0,0,1,.92.66,1.88,1.88,0,0,1-.28,2.12L53.93,144.75a1,1,0,0,1-1.56-.38,1.88,1.88,0,0,1,.28-2.12L202.37,1.42A.92.92,0,0,1,203,1.14Z"/><path class="cls-1" d="M203,1.14a1.26,1.26,0,0,1,1.09,1.18,1.6,1.6,0,0,1-.84,1.83L15.46,62.78c-.6.19-1.21-.32-1.34-1.14A1.58,1.58,0,0,1,15,59.82L202.76,1.18A1.09,1.09,0,0,1,203,1.14Z"/><path class="cls-1" d="M295,.6c-4.39-1.12-12.59,1.31-13.78,8.26-1.31,7.67,1.66,15,7.44,16.13,1.06.22,1.52-2,.45-2.2-4.91-1-7.57-7.12-6-13.57,1.32-5.36,7.75-7.36,11.44-6.42,1,.28,1.51-1.92.44-2.2Z"/><path class="cls-1" d="M289.15,22.79c-6-1.3-14.39-1.48-19.83,2.89-4.7,3.77-6.77,11.58-5.39,18.6.28,1.42,1.9.82,1.62-.6-1.45-7.36,1.49-15,6.86-17.37A27,27,0,0,1,288.7,25c1.06.23,1.52-2,.45-2.2Z"/><path class="cls-1" d="M265.69,43.37c-7.12-3.7-15.07-6.17-21.53.86s-7.87,18.91-6.68,29.61c.16,1.45,1.78.83,1.62-.61-1.11-10,.2-21.17,6.49-27.61,5.95-6.09,13.28-3.36,19.65,0,1,.53,1.45-1.68.45-2.2Z"/><path class="cls-1" d="M239,73C235.19,65.28,227.86,59.9,221,60.35s-13.06,10.42-14.23,19.1c-.19,1.44,1.43,2.06,1.63.61,1.08-8.08,7.06-17.69,13.49-17.45,6.06.23,12.33,4.68,15.72,11.5.61,1.21,2.07.07,1.46-1.15Z"/><path class="cls-1" d="M208.29,80.27c-2-7.85-4.39-16.63-10.24-20.59s-13.22-1.12-18.6,2.66c-1,.68-.11,2.65.85,2,5.08-3.57,12.3-6.29,17.62-2.13,5,3.87,7,11.77,8.75,18.7.35,1.38,2,.79,1.62-.61Z"/><path class="cls-1" d="M180.22,65a46.43,46.43,0,0,0,1.14-12.5c-.06-3.15-.58-6.5-2.17-8.92-3.82-5.82-11.85-4.6-16.87-3.67-1.07.19-.61,2.39.45,2.2,4.42-.81,12.58-2.1,15.58,3.7,2.33,4.51,1.56,13.79.25,18.59-.38,1.38,1.25,2,1.62.6Z"/><path class="cls-1" d="M160.46,43.94c6.12-4.32,8.41-15.48,2.35-21.63-2.44-2.47-5.72-2.75-8.65-3.08a26.32,26.32,0,0,0-11.74,1.37c-1,.36-.61,2.56.45,2.2a26.35,26.35,0,0,1,15.57-.52c3,.81,5.58,3.62,6.25,7.88A12.88,12.88,0,0,1,159.61,42c-1,.68-.11,2.65.85,2Z"/><path class="cls-1" d="M140.54,23.2c4.05.08,7-4.8,5.52-10.16S141,2.09,137,.42c-1-.42-1.49,1.78-.45,2.2,2.64,1.08,4.53,3.77,6.07,6.76a23.68,23.68,0,0,1,1.68,3.72c1.26,4-.36,7.89-3.72,7.82-1.08,0-1.08,2.26,0,2.28Z"/><path class="cls-1" d="M258,14.9c-3.65-1.06-7.3-1.49-10.52,1.52a16.74,16.74,0,0,0-4.76,12.87c.07,1.46,1.75,1.47,1.68,0-.21-4.69,1.57-9.07,4.57-11.46,2.67-2.15,5.68-1.57,8.58-.73,1.06.3,1.51-1.9.45-2.2Z"/><path class="cls-1" d="M244.1,29c-9-8.08-21.1,1.36-20.61,15.71,0,1.46,1.73,1.47,1.68,0-.43-12.68,10.12-20.88,18.09-13.74.9.81,1.74-1.16.84-2Z"/><path class="cls-1" d="M225,45.06c-4.56-12.91-18.62-9.61-19.87,4.6-.13,1.46,1.55,1.45,1.68,0,1.07-12.16,13-14.08,16.74-3.45.46,1.33,1.91.17,1.45-1.15Z"/><path class="cls-1" d="M206.65,49.74c-1.44-4.81-3.16-10.16-7-12.17s-8.13-.28-11.36,2.58c-.9.8-.06,2.78.85,2,2.86-2.53,7.1-4.37,10.39-2.16,3,2,4.33,6.48,5.5,10.39.4,1.34,2,.75,1.62-.61Z"/><path class="cls-1" d="M188.24,42.21c3.57.5,1.36-8.93.32-10.9a10.33,10.33,0,0,0-10.37-5.83c-1.07.14-1.08,2.42,0,2.28a8.38,8.38,0,0,1,7,2.28A9.69,9.69,0,0,1,188,34.6c.13.51.69,5.39.25,5.32-1.07-.15-1.06,2.13,0,2.29Z"/><path class="cls-1" d="M178.61,27.61c2-1.95.87-6.87-.13-9.28-1.18-2.83-2.8-6.49-5.27-7.32-1.05-.36-1.5,1.84-.44,2.2,1.75.59,2.58,2.93,3.54,4.81a14.13,14.13,0,0,1,1.31,3.29c.16.7.78,3.7.14,4.32-.87.85,0,2.83.85,2Z"/><path class="cls-1" d="M322.63,31.24a15.66,15.66,0,0,0-14.77,3.24c-4,3.45-5.38,9.26-5.46,15.46-.17,12.89,5.67,24.94,14.26,30.24,1,.6,1.84-1.37.85-2-7.31-4.51-12.6-14.06-13.34-25-.39-5.73.2-12.45,3.85-16.11a14.28,14.28,0,0,1,14.16-3.64c1.06.3,1.51-1.9.45-2.2Z"/><path class="cls-1" d="M315.21,76.64A60.58,60.58,0,0,0,292,70.19c-7.36-.67-15.27-.93-22,3.83-6,4.25-9.27,11.8-10.31,20.73-1,8.31-1.75,19.29,1.79,26.68.59,1.23,2.05.09,1.46-1.15-3.34-7-2.55-18.28-1.48-26.13,1.32-9.62,5.56-16.73,12.44-19.91,6.38-2.95,13.49-2.31,20.1-1.56a57.69,57.69,0,0,1,20.73,6.16c1,.54,1.45-1.67.45-2.2Z"/><path class="cls-1" d="M261.89,119.56c-8.22-11.34-20.64-15.33-31.64-9.52-5.44,2.88-9.92,7.73-13.07,14.4-3.42,7.25-6.9,15.39-6.66,24.26,0,1.47,1.72,1.48,1.68,0-.21-8.1,2.9-15.28,5.92-22,3.17-7,7.69-12.13,13.43-14.91,10.26-5,21.56-1.1,29.15,9.36.76,1,1.95-.56,1.19-1.61Z"/><path class="cls-1" d="M71.63,44.85c8.29-3.92,16.07-14.09,11.51-26.63C79.39,7.94,70.57.62,62.24.38c-1.08,0-1.08,2.25,0,2.28,7.15.21,13.87,5.76,18.05,13.58,2.44,4.57,3.55,10.48,1.46,15.69A20.74,20.74,0,0,1,71.18,42.65c-1,.48-.57,2.69.45,2.2Z"/><path class="cls-1" d="M112.15,32.35c4.08-2.7,4.72-9.82,3.55-15.2C114.21,10.3,109.94,5,105.93.71c-.84-.89-2,.71-1.19,1.62a40.74,40.74,0,0,1,8,11.22c2.17,4.92,3.23,13.76-1.4,16.83-1,.65-.12,2.61.85,2Z"/><path class="cls-1" d="M210,111.53c.11-13.57-9-21.72-18.09-22.9-5.35-.7-10.92.55-16.09,2.4-4.24,1.51-8.69,4.29-10.93,9.67-.53,1.28.92,2.43,1.45,1.15,2.11-5.06,6.41-7.42,10.37-8.78a36.84,36.84,0,0,1,13.21-2.32c8.8.33,18.51,7.32,18.4,20.78,0,1.47,1.67,1.47,1.68,0Z"/><path class="cls-1" d="M208.83,91.57c-.22-11.27-8.22-16.91-15.65-17.21-8.6-.35-17.21,4.13-23.35,12.3-.77,1,.42,2.64,1.19,1.61,5.2-6.92,12.14-10.91,19.39-11.56s16.51,3.21,16.74,14.86c0,1.47,1.71,1.48,1.68,0Z"/><path class="cls-1" d="M248,90.77C242,82,232.22,80.87,224.35,85c-8.33,4.34-14,14.82-15.94,26.42-.23,1.43,1.39,2,1.63.61,1.76-10.69,6.85-20.47,14.48-24.67,7.36-4,16.64-3.2,22.24,5,.74,1.08,1.92-.53,1.19-1.61Z"/><path class="cls-1" d="M351.82,101.1c-6.6-10.32-10.08-26.19-6.63-39.48,3.95-15.22,19.62-16.88,29.63-15.43,1.07.16,1.07-2.13,0-2.28-10.46-1.52-26.29.52-30.91,15.86-4.27,14.22-.41,31.79,6.72,42.95.71,1.11,1.9-.51,1.19-1.62Z"/><path class="cls-1" d="M422.57,55.29c-9.3-.71-17.74-12.34-19.39-24.48C401.35,17.39,407.84,3.4,418.4,3.1c1.08,0,1.08-2.31,0-2.28-11.21.32-18.44,14.58-17,29,1.35,13.83,10.75,26.91,21.19,27.71,1.08.08,1.08-2.2,0-2.28Z"/><path class="cls-1" d="M143.58,161.22c3.36-10.18.34-21.56-4.64-29.66-2.81-4.59-6.18-9-10.38-11.09-4.41-2.2-9.34-2.13-14-2.38a79,79,0,0,0-30.78,4.81c-9.17,3.27-18.57,8-26.36,15.41-.88.84,0,2.82.85,2,6.9-6.57,15-10.85,23-14.08a78,78,0,0,1,26.79-6c9.21-.21,19.51-.76,26.55,8.46,6,7.82,11.21,20,7.45,31.38-.44,1.33,1,2.49,1.45,1.15Z"/><path class="cls-1" d="M384.9,123.35c-3.18-8.07-5.63-17.2-5.73-26.45a44.07,44.07,0,0,1,6.5-23.45c9.15-14.72,24-18.43,37.42-15.74,1.06.21,1.52-2,.45-2.2C409.21,52.64,393.45,56.68,384,72.7a46.86,46.86,0,0,0-6.47,23.6c0,9.87,2.56,19.6,6,28.2.51,1.3,2,.14,1.45-1.15Z"/><path class="cls-1" d="M296.1,186.86c-7.86-20.79-10.18-48.8,2.78-67,6.22-8.71,15.09-12.26,23.58-14.74,9.72-2.83,19.74-3.66,29.53-1,1.06.29,1.51-1.91.45-2.2C342.34,99.22,332,100,322,103c-9.07,2.65-18.47,6.6-24.91,16.16-12.87,19.09-10.57,47.44-2.46,68.89.49,1.31,2,.15,1.45-1.15Z"/><path class="cls-1" d="M295.55,186.63C289.69,178.76,283.42,171,276,166c-8-5.35-16.21-5.8-24.89-4.25-15.6,2.78-31.64,12.62-37.69,33.69-.4,1.37,1.23,2,1.62.61,6-21,22.62-30,38-32.34,8.38-1.26,16.2-.17,23.68,5.4,6.65,4.94,12.29,12,17.64,19.14.77,1,2-.58,1.19-1.61Z"/><path class="cls-1" d="M94.47,106.08c11.35-6.22,11.62-27.9,7.19-40.8-5.18-15.07-18.3-25-30.48-22.63-1.06.21-.61,2.41.45,2.2,10.83-2.12,22.65,6.61,27.81,19.52,4.63,11.57,5.45,33.55-5.42,39.51-1,.54-.56,2.75.45,2.2Z"/><path class="cls-1" d="M16.53,62.33c5.87-1.71,11.86-3.57,16.6-8.88A33.47,33.47,0,0,0,41,30.57C40.23,10.07,23.59,2.84,11.18.37c-1.06-.21-1.51,2-.44,2.2,11.58,2.3,27.81,8.63,28.59,28a30.53,30.53,0,0,1-7.91,21.8c-4.43,4.61-10,6.2-15.34,7.76-1.06.31-.61,2.51.45,2.2Z"/><path class="cls-1" d="M143.84,161c13.24-9.7,29.82-11.1,43.59-2.49,12.51,7.83,21.68,24,26.1,41.39.35,1.39,2,.79,1.62-.6C210.5,180.92,200.8,164,187.51,156c-14.17-8.48-31-7-44.51,3-1,.69-.11,2.67.84,2Z"/><path class="cls-1" d="M373,43.54c-3.22-2.35-6.64-4.88-8.81-9a19.78,19.78,0,0,1-.67-16.23C367.81,7.39,378.26,4,386.59,2.66c1.06-.17,1.07-2.46,0-2.28C377.21,1.91,365.33,6,361.37,19.17c-3.71,12.36,3.49,21,10.78,26.34,1,.69,1.8-1.28.85-2Z"/><path class="cls-1" d="M332.76,33.21c-6.56-2.34-14.65-7.32-11.58-18.58C324,4.23,332.89,2.46,340,3c1.08.08,1.08-2.2,0-2.28C331.85.1,322,2.85,319.32,15s5.78,17.85,13,20.43c1.05.37,1.49-1.83.45-2.2Z"/><path class="cls-1" d="M168.76,2.48a5,5,0,0,1,4,3.78c.31,1.06.72,4.11-.17,4.86s-.07,2.76.85,2c1.71-1.45,1.59-4.91,1-7.26A7,7,0,0,0,168.76.2c-1.08-.18-1.07,2.1,0,2.28Z"/><path class="cls-1" d="M255.27.58c-6.08-.19-9.08,9.63-4.69,15.34.78,1,2-.59,1.19-1.61-3.33-4.34-1.11-11.59,3.5-11.45,1.09,0,1.09-2.24,0-2.28Z"/><path class="cls-1" d="M153.13,136.81c16.3-23.11,46.27-19.53,57.47,9.51.5,1.3,2,.15,1.45-1.15-11.69-30.33-43.09-34.11-60.11-10-.74,1.06.44,2.68,1.19,1.62Z"/><path class="cls-1" d="M152.87,136.83c3.43-8,4.62-17.89,1.81-26.57a30.53,30.53,0,0,0-13.19-17c-14.25-8.42-32-2.41-44.88,7.64-.94.73-.1,2.7.84,2,11.76-9.14,27.15-14.63,40.46-9a27.6,27.6,0,0,1,14.47,15.16c3.46,8.42,2.51,18.48-1,26.59-.55,1.27.91,2.42,1.45,1.15Z"/><path class="cls-1" d="M322,239.85c-5.19-28.38-2.82-59.7,10.42-83.55,5.58-10.06,13-18.42,21.51-23.42,10.21-6,21.38-6.57,32.33-6.42,1.08,0,1.09-2.27,0-2.29-8.89-.12-17.86.2-26.47,3.5a50.51,50.51,0,0,0-19.85,14.46c-12.24,14.14-19.48,34.74-21.62,56.17a151,151,0,0,0,2.06,42.15c.26,1.43,1.88.83,1.62-.6Z"/><path class="cls-1" d="M367.37,41.64c-12.53-5.15-18.84-23.48-14-39.92.4-1.36-1.22-1.95-1.62-.6-5.21,17.61,1.82,37.24,15.15,42.73,1,.42,1.48-1.78.45-2.21Z"/><path class="cls-1" d="M322.56,31.56c-7.16,3.61-10.66,13.81-9.9,23.77.95,12.46,7.07,21.73,13,30.61.73,1.1,1.92-.52,1.19-1.61-5-7.57-10.2-15.16-12-25.37-1.74-9.8.69-21.42,8.19-25.2,1-.51.57-2.71-.45-2.2Z"/><path class="cls-1" d="M349.22,100.61c-17.76-6.3-37.45-13-55.06-2.27C280,106.91,270,127.81,275,149c.33,1.39,1.95.8,1.62-.61-5.11-21.57,6-42,20.62-49.34,16.76-8.46,34.89-2.14,51.49,3.75,1.05.37,1.5-1.83.45-2.2Z"/><path class="cls-1" d="M382.84,121.31c-8.68-8.56-14.19-22.56-14.25-37.18,0-14.38,5.12-28.07,13.42-36.88.85-.91-.35-2.51-1.19-1.62C372,55,366.58,70,366.93,85.29c.34,15.08,6.11,29.17,15.06,38,.87.86,1.71-1.12.85-2Z"/><path class="cls-1" d="M292.79,183c-10-16.41-23.06-32.35-38.72-37.5-14.74-4.85-30.78-.33-42.87,12-.86.88,0,2.86.84,2,12-12.27,27.88-16.7,42.44-11.53,15,5.34,27.44,20.8,37.12,36.62.69,1.14,1.88-.49,1.19-1.61Z"/><path class="cls-1" d="M324.11,30.57c-13.85-3-26.35-13.46-34.45-29-.62-1.19-2.08-.05-1.45,1.15,8.34,16,21.16,27,35.45,30.08,1.06.23,1.52-2,.45-2.2Z"/><path class="cls-1" d="M264.62,43.1c-8.1-4.36-14.62,6-16.26,15.7-2.17,12.92-1.11,27.29,1.58,39.89.3,1.41,1.93.81,1.62-.61a118.43,118.43,0,0,1-2.24-32.76c.37-5.52,1.29-11.54,4.05-15.84s6.9-6.29,10.81-4.18c1,.54,1.44-1.67.44-2.2Z"/><path class="cls-1" d="M275.63,146.85c-18.47-19.92-46-19-64.7-.14-.86.87,0,2.85.85,2,18.07-18.22,44.75-19.53,62.66-.22.84.91,2-.7,1.19-1.61Z"/><path class="cls-1" d="M167,99.69c5.42-11,5.26-25.48-2.74-34.07-8.59-9.24-20.19-7.17-29.16-.13-.93.74-.09,2.71.85,2,8.06-6.33,18.35-8.59,26.4-.94s8.41,21.45,3.19,32c-.6,1.22.86,2.37,1.46,1.15Z"/><path class="cls-1" d="M156.23,127.54c6.67-12.91,5.76-30.69-2.59-41.83C143.83,72.62,130,75.83,118.12,81c-1,.45-.59,2.66.44,2.21,11-4.78,23.93-8.31,33.29,3.34,8.34,10.38,9.36,27.39,2.93,39.84-.62,1.21.83,2.35,1.45,1.15Z"/><path class="cls-1" d="M133.79,69.1c3.64-2.76,7.74-6.16,9.38-11.67,1.69-5.68.4-12.61-2.06-17.5-6.34-12.62-18.76-13-28.66-10-1,.32-.61,2.52.45,2.2,8.74-2.65,19.48-2.78,25.83,7.32,2.92,4.64,4.74,12.11,2.63,17.91-1.66,4.57-5.27,7.39-8.42,9.78-.95.71-.1,2.69.85,2Z"/><path class="cls-1" d="M77.32,43.15a66.31,66.31,0,0,1,24.81,14.23c7.12,6.67,12.93,18.27,9.26,30.26-.42,1.35,1.21,1.94,1.62.6,3.49-11.38-1.1-23.26-7.7-30.47-7.79-8.52-17.92-13.65-27.55-16.83-1.05-.34-1.5,1.86-.44,2.21Z"/><path class="cls-1" d="M384.63,124c-15-7.51-31.79-6.9-46.49,1.53-13.85,7.94-25.05,23-31.47,41.41a111,111,0,0,0-6,33c0,1.46,1.64,1.46,1.68,0,.8-25.34,10.46-49.78,25.83-64.33,16.19-15.32,37.59-18.63,56-9.38,1,.51,1.45-1.69.44-2.2Z"/><path class="cls-1" d="M401.88.43c-5.73,4.78-8.89,13-9.48,22-.7,10.66,2.44,20.78,7.18,29.07.66,1.16,1.85-.46,1.19-1.61-7.81-13.66-10.64-37,2-47.46.92-.76.08-2.74-.85-2Z"/></g></g></svg>